<?xml version="1.0" encoding="UTF-8" standalone="no"?><!DOCTYPE svg PUBLIC "-//W3C//DTD SVG 1.1//EN" "http://www.w3.org/Graphics/SVG/1.1/DTD/svg11.dtd"><svg width="100%" height="100%" viewBox="0 0 1270 1269" version="1.1" xmlns="http://www.w3.org/2000/svg" xmlns:xlink="http://www.w3.org/1999/xlink" xml:space="preserve" xmlns:serif="http://www.serif.com/" style="fill-rule:evenodd;clip-rule:evenodd;stroke-linejoin:round;stroke-miterlimit:2;"><path d="M1120.882,362.112c-1.729,6.704 -3.838,13.025 -6.333,19.442c-0.288,1.054 -1.054,2.396 -1.438,3.829c-2.4,6.321 -5.279,13.025 -8.829,19.729c-1.346,3.546 -3.167,7.087 -5.279,11.017c-1.438,2.392 -3.167,5.267 -4.892,7.754c-1.442,2.779 -3.263,5.271 -4.992,8.046c-13.817,21.167 -30.417,42.046 -50.183,61.775c-9.887,9.479 -20.442,19.058 -31.762,28.154c-63.237,51.908 -150.558,94.525 -260.429,126.992c-27.254,8.142 -55.85,15.133 -85.883,22.221c-14.104,2.775 -28.308,5.65 -43.087,8.142c-16.312,3.542 -32.912,6.321 -49.896,8.425c-88.375,13.888 -219.55,22.413 -332.204,24.229c-3.842,-23.75 -5.854,-48.171 -5.854,-73.263c0,-8.621 0.192,-17.237 0.671,-25.763c2.112,-39.075 9.021,-77.383 20.054,-114.254c78.496,5.267 213.796,1.438 316.663,-10.537c31.088,-3.925 62.85,-8.521 94.325,-14.075c14.492,-2.492 28.692,-5.367 43.088,-8.525c2.492,-0.671 5.658,-1.054 8.538,-1.725c14.492,-3.158 29.363,-6.704 43.471,-10.246c53.733,-13.792 104.592,-30.646 148.733,-51.525c101.425,-46.833 133.188,-113.488 123.017,-178.804c-0.767,-2.492 -0.767,-4.217 -1.054,-6.321c-8.829,-42.717 -34.642,-84.279 -70.721,-119.238c-9.692,-9.096 -19.958,-17.812 -30.708,-25.954c-1.342,-1.146 -2.783,-2.2 -4.221,-3.254c1.633,0.192 36.625,8.1 96.512,50.708c9.225,6.562 22.571,18.054 31.017,26.867c11.608,11.3 22.646,23.942 32.817,37.35c7.483,10.629 14.487,21.55 20.533,33.137c6.333,11.3 11.325,22.983 15.162,35.338c2.879,8.046 4.604,16.571 6.429,25.379c4.896,26.433 4.508,54.975 -3.263,84.95" style="fill:#fff;fill-rule:nonzero;"/><path d="M1015.587,723.925c-77.883,55.471 -174.233,100.3 -269.608,135.637l5.729,208.871c-8.596,1.217 -17.25,2.188 -25.963,2.979c-15.662,1.396 -31.508,2.192 -47.05,2.192c-15.417,0 -30.713,-0.671 -45.646,-2.129c-42.233,-3.713 -82.454,-12.654 -119.871,-26.217l1.825,-109.85l0.125,-3.342c-6.462,1.7 -12.8,3.342 -18.954,4.987c-40.163,9.854 -93.913,17.213 -126.638,22.504c-25.721,-23.175 -48.392,-49.329 -67.587,-77.979c-20.904,-31.137 -37.663,-65.321 -49.792,-101.879c114.208,0.429 525.508,-11.433 767.392,-186.179c99.579,-71.288 187.579,-178.458 154,-332.283c1.096,1.458 1.829,2.8 2.867,4.621l0.304,0.367c2.862,5.292 5.667,10.95 8.167,16.604c2.8,5.9 5.667,11.983 7.8,18.246c2.438,6.083 4.204,12.775 6.704,19.467c31.75,110.7 0.362,272.554 -183.804,403.383" style="fill:#fff;fill-rule:nonzero;"/><path d="M1269.904,668.579c-17.754,334.242 -294.975,599.908 -634.471,599.908c-350.921,0 -635.433,-283.958 -635.433,-634.196c0,-350.329 284.512,-634.292 635.433,-634.292c120.667,0 232.292,32.658 285.954,67.712c-59.496,-15.804 -123.692,-21.55 -190.767,-15.517c-306.583,27.487 -555.208,290.092 -555.208,586.408c0,296.408 248.625,514.383 555.208,486.9c261.004,-23.371 479.888,-217.017 539.283,-456.925" style="fill:#fff;fill-rule:nonzero;"/></svg>